<svg height="1024pt" viewBox="0.00 0.00 392.00 1134.00" width="354pt" xmlns="http://www.w3.org/2000/svg" xmlns:xlink="http://www.w3.org/1999/xlink">
<g class="graph" id="graph0" transform="scale(0.902778 0.902778) rotate(0) translate(4 1130)">
<title>G</title>
<polygon fill="white" points="-4,4 -4,-1130 388,-1130 388,4 -4,4" stroke="none"/>
<!-- 2482712943416 -->
<g class="node" id="node1"><title>2482712943416</title>
<polygon fill="none" points="40.5,-1079.5 40.5,-1125.5 343.5,-1125.5 343.5,-1079.5 40.5,-1079.5" stroke="black"/>
<text font-family="Times New Roman,serif" font-size="14.00" text-anchor="middle" x="103.5" y="-1098.8">input_1: InputLayer</text>
<polyline fill="none" points="166.5,-1079.5 166.5,-1125.5 " stroke="black"/>
<text font-family="Times New Roman,serif" font-size="14.00" text-anchor="middle" x="194.5" y="-1110.3">input:</text>
<polyline fill="none" points="166.5,-1102.5 222.5,-1102.5 " stroke="black"/>
<text font-family="Times New Roman,serif" font-size="14.00" text-anchor="middle" x="194.5" y="-1087.3">output:</text>
<polyline fill="none" points="222.5,-1079.5 222.5,-1125.5 " stroke="black"/>
<text font-family="Times New Roman,serif" font-size="14.00" text-anchor="middle" x="283" y="-1110.3">[(None, 28, 28, 1)]</text>
<polyline fill="none" points="222.5,-1102.5 343.5,-1102.5 " stroke="black"/>
<text font-family="Times New Roman,serif" font-size="14.00" text-anchor="middle" x="283" y="-1087.3">[(None, 28, 28, 1)]</text>
</g>
<!-- 2484609420200 -->
<g class="node" id="node2"><title>2484609420200</title>
<polygon fill="none" points="48,-996.5 48,-1042.5 336,-1042.5 336,-996.5 48,-996.5" stroke="black"/>
<text font-family="Times New Roman,serif" font-size="14.00" text-anchor="middle" x="104.5" y="-1015.8">conv2d: Conv2D</text>
<polyline fill="none" points="161,-996.5 161,-1042.5 " stroke="black"/>
<text font-family="Times New Roman,serif" font-size="14.00" text-anchor="middle" x="189" y="-1027.3">input:</text>
<polyline fill="none" points="161,-1019.5 217,-1019.5 " stroke="black"/>
<text font-family="Times New Roman,serif" font-size="14.00" text-anchor="middle" x="189" y="-1004.3">output:</text>
<polyline fill="none" points="217,-996.5 217,-1042.5 " stroke="black"/>
<text font-family="Times New Roman,serif" font-size="14.00" text-anchor="middle" x="276.5" y="-1027.3">(None, 28, 28, 1)</text>
<polyline fill="none" points="217,-1019.5 336,-1019.5 " stroke="black"/>
<text font-family="Times New Roman,serif" font-size="14.00" text-anchor="middle" x="276.5" y="-1004.3">(None, 28, 28, 16)</text>
</g>
<!-- 2482712943416&#45;&gt;2484609420200 -->
<g class="edge" id="edge1"><title>2482712943416-&gt;2484609420200</title>
<path d="M192,-1079.37C192,-1071.15 192,-1061.66 192,-1052.73" fill="none" stroke="black"/>
<polygon fill="black" points="195.5,-1052.61 192,-1042.61 188.5,-1052.61 195.5,-1052.61" stroke="black"/>
</g>
<!-- 2482715507568 -->
<g class="node" id="node3"><title>2482715507568</title>
<polygon fill="none" points="7.5,-913.5 7.5,-959.5 376.5,-959.5 376.5,-913.5 7.5,-913.5" stroke="black"/>
<text font-family="Times New Roman,serif" font-size="14.00" text-anchor="middle" x="104.5" y="-932.8">max_pooling2d: MaxPooling2D</text>
<polyline fill="none" points="201.5,-913.5 201.5,-959.5 " stroke="black"/>
<text font-family="Times New Roman,serif" font-size="14.00" text-anchor="middle" x="229.5" y="-944.3">input:</text>
<polyline fill="none" points="201.5,-936.5 257.5,-936.5 " stroke="black"/>
<text font-family="Times New Roman,serif" font-size="14.00" text-anchor="middle" x="229.5" y="-921.3">output:</text>
<polyline fill="none" points="257.5,-913.5 257.5,-959.5 " stroke="black"/>
<text font-family="Times New Roman,serif" font-size="14.00" text-anchor="middle" x="317" y="-944.3">(None, 28, 28, 16)</text>
<polyline fill="none" points="257.5,-936.5 376.5,-936.5 " stroke="black"/>
<text font-family="Times New Roman,serif" font-size="14.00" text-anchor="middle" x="317" y="-921.3">(None, 14, 14, 16)</text>
</g>
<!-- 2484609420200&#45;&gt;2482715507568 -->
<g class="edge" id="edge2"><title>2484609420200-&gt;2482715507568</title>
<path d="M192,-996.366C192,-988.152 192,-978.658 192,-969.725" fill="none" stroke="black"/>
<polygon fill="black" points="195.5,-969.607 192,-959.607 188.5,-969.607 195.5,-969.607" stroke="black"/>
</g>
<!-- 2482715842824 -->
<g class="node" id="node4"><title>2482715842824</title>
<polygon fill="none" points="41,-830.5 41,-876.5 343,-876.5 343,-830.5 41,-830.5" stroke="black"/>
<text font-family="Times New Roman,serif" font-size="14.00" text-anchor="middle" x="104.5" y="-849.8">conv2d_1: Conv2D</text>
<polyline fill="none" points="168,-830.5 168,-876.5 " stroke="black"/>
<text font-family="Times New Roman,serif" font-size="14.00" text-anchor="middle" x="196" y="-861.3">input:</text>
<polyline fill="none" points="168,-853.5 224,-853.5 " stroke="black"/>
<text font-family="Times New Roman,serif" font-size="14.00" text-anchor="middle" x="196" y="-838.3">output:</text>
<polyline fill="none" points="224,-830.5 224,-876.5 " stroke="black"/>
<text font-family="Times New Roman,serif" font-size="14.00" text-anchor="middle" x="283.5" y="-861.3">(None, 14, 14, 16)</text>
<polyline fill="none" points="224,-853.5 343,-853.5 " stroke="black"/>
<text font-family="Times New Roman,serif" font-size="14.00" text-anchor="middle" x="283.5" y="-838.3">(None, 14, 14, 8)</text>
</g>
<!-- 2482715507568&#45;&gt;2482715842824 -->
<g class="edge" id="edge3"><title>2482715507568-&gt;2482715842824</title>
<path d="M192,-913.366C192,-905.152 192,-895.658 192,-886.725" fill="none" stroke="black"/>
<polygon fill="black" points="195.5,-886.607 192,-876.607 188.5,-886.607 195.5,-886.607" stroke="black"/>
</g>
<!-- 2482715843664 -->
<g class="node" id="node5"><title>2482715843664</title>
<polygon fill="none" points="3.5,-747.5 3.5,-793.5 380.5,-793.5 380.5,-747.5 3.5,-747.5" stroke="black"/>
<text font-family="Times New Roman,serif" font-size="14.00" text-anchor="middle" x="108" y="-766.8">max_pooling2d_1: MaxPooling2D</text>
<polyline fill="none" points="212.5,-747.5 212.5,-793.5 " stroke="black"/>
<text font-family="Times New Roman,serif" font-size="14.00" text-anchor="middle" x="240.5" y="-778.3">input:</text>
<polyline fill="none" points="212.5,-770.5 268.5,-770.5 " stroke="black"/>
<text font-family="Times New Roman,serif" font-size="14.00" text-anchor="middle" x="240.5" y="-755.3">output:</text>
<polyline fill="none" points="268.5,-747.5 268.5,-793.5 " stroke="black"/>
<text font-family="Times New Roman,serif" font-size="14.00" text-anchor="middle" x="324.5" y="-778.3">(None, 14, 14, 8)</text>
<polyline fill="none" points="268.5,-770.5 380.5,-770.5 " stroke="black"/>
<text font-family="Times New Roman,serif" font-size="14.00" text-anchor="middle" x="324.5" y="-755.3">(None, 7, 7, 8)</text>
</g>
<!-- 2482715842824&#45;&gt;2482715843664 -->
<g class="edge" id="edge4"><title>2482715842824-&gt;2482715843664</title>
<path d="M192,-830.366C192,-822.152 192,-812.658 192,-803.725" fill="none" stroke="black"/>
<polygon fill="black" points="195.5,-803.607 192,-793.607 188.5,-803.607 195.5,-803.607" stroke="black"/>
</g>
<!-- 2482715961552 -->
<g class="node" id="node6"><title>2482715961552</title>
<polygon fill="none" points="51.5,-664.5 51.5,-710.5 332.5,-710.5 332.5,-664.5 51.5,-664.5" stroke="black"/>
<text font-family="Times New Roman,serif" font-size="14.00" text-anchor="middle" x="115" y="-683.8">conv2d_2: Conv2D</text>
<polyline fill="none" points="178.5,-664.5 178.5,-710.5 " stroke="black"/>
<text font-family="Times New Roman,serif" font-size="14.00" text-anchor="middle" x="206.5" y="-695.3">input:</text>
<polyline fill="none" points="178.5,-687.5 234.5,-687.5 " stroke="black"/>
<text font-family="Times New Roman,serif" font-size="14.00" text-anchor="middle" x="206.5" y="-672.3">output:</text>
<polyline fill="none" points="234.5,-664.5 234.5,-710.5 " stroke="black"/>
<text font-family="Times New Roman,serif" font-size="14.00" text-anchor="middle" x="283.5" y="-695.3">(None, 7, 7, 8)</text>
<polyline fill="none" points="234.5,-687.5 332.5,-687.5 " stroke="black"/>
<text font-family="Times New Roman,serif" font-size="14.00" text-anchor="middle" x="283.5" y="-672.3">(None, 7, 7, 8)</text>
</g>
<!-- 2482715843664&#45;&gt;2482715961552 -->
<g class="edge" id="edge5"><title>2482715843664-&gt;2482715961552</title>
<path d="M192,-747.366C192,-739.152 192,-729.658 192,-720.725" fill="none" stroke="black"/>
<polygon fill="black" points="195.5,-720.607 192,-710.607 188.5,-720.607 195.5,-720.607" stroke="black"/>
</g>
<!-- 2482715963064 -->
<g class="node" id="node7"><title>2482715963064</title>
<polygon fill="none" points="10.5,-581.5 10.5,-627.5 373.5,-627.5 373.5,-581.5 10.5,-581.5" stroke="black"/>
<text font-family="Times New Roman,serif" font-size="14.00" text-anchor="middle" x="115" y="-600.8">max_pooling2d_2: MaxPooling2D</text>
<polyline fill="none" points="219.5,-581.5 219.5,-627.5 " stroke="black"/>
<text font-family="Times New Roman,serif" font-size="14.00" text-anchor="middle" x="247.5" y="-612.3">input:</text>
<polyline fill="none" points="219.5,-604.5 275.5,-604.5 " stroke="black"/>
<text font-family="Times New Roman,serif" font-size="14.00" text-anchor="middle" x="247.5" y="-589.3">output:</text>
<polyline fill="none" points="275.5,-581.5 275.5,-627.5 " stroke="black"/>
<text font-family="Times New Roman,serif" font-size="14.00" text-anchor="middle" x="324.5" y="-612.3">(None, 7, 7, 8)</text>
<polyline fill="none" points="275.5,-604.5 373.5,-604.5 " stroke="black"/>
<text font-family="Times New Roman,serif" font-size="14.00" text-anchor="middle" x="324.5" y="-589.3">(None, 4, 4, 8)</text>
</g>
<!-- 2482715961552&#45;&gt;2482715963064 -->
<g class="edge" id="edge6"><title>2482715961552-&gt;2482715963064</title>
<path d="M192,-664.366C192,-656.152 192,-646.658 192,-637.725" fill="none" stroke="black"/>
<polygon fill="black" points="195.5,-637.607 192,-627.607 188.5,-637.607 195.5,-637.607" stroke="black"/>
</g>
<!-- 2482716003800 -->
<g class="node" id="node8"><title>2482716003800</title>
<polygon fill="none" points="51.5,-498.5 51.5,-544.5 332.5,-544.5 332.5,-498.5 51.5,-498.5" stroke="black"/>
<text font-family="Times New Roman,serif" font-size="14.00" text-anchor="middle" x="115" y="-517.8">conv2d_3: Conv2D</text>
<polyline fill="none" points="178.5,-498.5 178.5,-544.5 " stroke="black"/>
<text font-family="Times New Roman,serif" font-size="14.00" text-anchor="middle" x="206.5" y="-529.3">input:</text>
<polyline fill="none" points="178.5,-521.5 234.5,-521.5 " stroke="black"/>
<text font-family="Times New Roman,serif" font-size="14.00" text-anchor="middle" x="206.5" y="-506.3">output:</text>
<polyline fill="none" points="234.5,-498.5 234.5,-544.5 " stroke="black"/>
<text font-family="Times New Roman,serif" font-size="14.00" text-anchor="middle" x="283.5" y="-529.3">(None, 4, 4, 8)</text>
<polyline fill="none" points="234.5,-521.5 332.5,-521.5 " stroke="black"/>
<text font-family="Times New Roman,serif" font-size="14.00" text-anchor="middle" x="283.5" y="-506.3">(None, 4, 4, 8)</text>
</g>
<!-- 2482715963064&#45;&gt;2482716003800 -->
<g class="edge" id="edge7"><title>2482715963064-&gt;2482716003800</title>
<path d="M192,-581.366C192,-573.152 192,-563.658 192,-554.725" fill="none" stroke="black"/>
<polygon fill="black" points="195.5,-554.607 192,-544.607 188.5,-554.607 195.5,-554.607" stroke="black"/>
</g>
<!-- 2482716002344 -->
<g class="node" id="node9"><title>2482716002344</title>
<polygon fill="none" points="18,-415.5 18,-461.5 366,-461.5 366,-415.5 18,-415.5" stroke="black"/>
<text font-family="Times New Roman,serif" font-size="14.00" text-anchor="middle" x="115" y="-434.8">up_sampling2d: UpSampling2D</text>
<polyline fill="none" points="212,-415.5 212,-461.5 " stroke="black"/>
<text font-family="Times New Roman,serif" font-size="14.00" text-anchor="middle" x="240" y="-446.3">input:</text>
<polyline fill="none" points="212,-438.5 268,-438.5 " stroke="black"/>
<text font-family="Times New Roman,serif" font-size="14.00" text-anchor="middle" x="240" y="-423.3">output:</text>
<polyline fill="none" points="268,-415.5 268,-461.5 " stroke="black"/>
<text font-family="Times New Roman,serif" font-size="14.00" text-anchor="middle" x="317" y="-446.3">(None, 4, 4, 8)</text>
<polyline fill="none" points="268,-438.5 366,-438.5 " stroke="black"/>
<text font-family="Times New Roman,serif" font-size="14.00" text-anchor="middle" x="317" y="-423.3">(None, 8, 8, 8)</text>
</g>
<!-- 2482716003800&#45;&gt;2482716002344 -->
<g class="edge" id="edge8"><title>2482716003800-&gt;2482716002344</title>
<path d="M192,-498.366C192,-490.152 192,-480.658 192,-471.725" fill="none" stroke="black"/>
<polygon fill="black" points="195.5,-471.607 192,-461.607 188.5,-471.607 195.5,-471.607" stroke="black"/>
</g>
<!-- 2482716057896 -->
<g class="node" id="node10"><title>2482716057896</title>
<polygon fill="none" points="51.5,-332.5 51.5,-378.5 332.5,-378.5 332.5,-332.5 51.5,-332.5" stroke="black"/>
<text font-family="Times New Roman,serif" font-size="14.00" text-anchor="middle" x="115" y="-351.8">conv2d_4: Conv2D</text>
<polyline fill="none" points="178.5,-332.5 178.5,-378.5 " stroke="black"/>
<text font-family="Times New Roman,serif" font-size="14.00" text-anchor="middle" x="206.5" y="-363.3">input:</text>
<polyline fill="none" points="178.5,-355.5 234.5,-355.5 " stroke="black"/>
<text font-family="Times New Roman,serif" font-size="14.00" text-anchor="middle" x="206.5" y="-340.3">output:</text>
<polyline fill="none" points="234.5,-332.5 234.5,-378.5 " stroke="black"/>
<text font-family="Times New Roman,serif" font-size="14.00" text-anchor="middle" x="283.5" y="-363.3">(None, 8, 8, 8)</text>
<polyline fill="none" points="234.5,-355.5 332.5,-355.5 " stroke="black"/>
<text font-family="Times New Roman,serif" font-size="14.00" text-anchor="middle" x="283.5" y="-340.3">(None, 8, 8, 8)</text>
</g>
<!-- 2482716002344&#45;&gt;2482716057896 -->
<g class="edge" id="edge9"><title>2482716002344-&gt;2482716057896</title>
<path d="M192,-415.366C192,-407.152 192,-397.658 192,-388.725" fill="none" stroke="black"/>
<polygon fill="black" points="195.5,-388.607 192,-378.607 188.5,-388.607 195.5,-388.607" stroke="black"/>
</g>
<!-- 2482716060304 -->
<g class="node" id="node11"><title>2482716060304</title>
<polygon fill="none" points="3.5,-249.5 3.5,-295.5 380.5,-295.5 380.5,-249.5 3.5,-249.5" stroke="black"/>
<text font-family="Times New Roman,serif" font-size="14.00" text-anchor="middle" x="108" y="-268.8">up_sampling2d_1: UpSampling2D</text>
<polyline fill="none" points="212.5,-249.5 212.5,-295.5 " stroke="black"/>
<text font-family="Times New Roman,serif" font-size="14.00" text-anchor="middle" x="240.5" y="-280.3">input:</text>
<polyline fill="none" points="212.5,-272.5 268.5,-272.5 " stroke="black"/>
<text font-family="Times New Roman,serif" font-size="14.00" text-anchor="middle" x="240.5" y="-257.3">output:</text>
<polyline fill="none" points="268.5,-249.5 268.5,-295.5 " stroke="black"/>
<text font-family="Times New Roman,serif" font-size="14.00" text-anchor="middle" x="324.5" y="-280.3">(None, 8, 8, 8)</text>
<polyline fill="none" points="268.5,-272.5 380.5,-272.5 " stroke="black"/>
<text font-family="Times New Roman,serif" font-size="14.00" text-anchor="middle" x="324.5" y="-257.3">(None, 16, 16, 8)</text>
</g>
<!-- 2482716057896&#45;&gt;2482716060304 -->
<g class="edge" id="edge10"><title>2482716057896-&gt;2482716060304</title>
<path d="M192,-332.366C192,-324.152 192,-314.658 192,-305.725" fill="none" stroke="black"/>
<polygon fill="black" points="195.5,-305.607 192,-295.607 188.5,-305.607 195.5,-305.607" stroke="black"/>
</g>
<!-- 2482716057728 -->
<g class="node" id="node12"><title>2482716057728</title>
<polygon fill="none" points="41,-166.5 41,-212.5 343,-212.5 343,-166.5 41,-166.5" stroke="black"/>
<text font-family="Times New Roman,serif" font-size="14.00" text-anchor="middle" x="104.5" y="-185.8">conv2d_5: Conv2D</text>
<polyline fill="none" points="168,-166.5 168,-212.5 " stroke="black"/>
<text font-family="Times New Roman,serif" font-size="14.00" text-anchor="middle" x="196" y="-197.3">input:</text>
<polyline fill="none" points="168,-189.5 224,-189.5 " stroke="black"/>
<text font-family="Times New Roman,serif" font-size="14.00" text-anchor="middle" x="196" y="-174.3">output:</text>
<polyline fill="none" points="224,-166.5 224,-212.5 " stroke="black"/>
<text font-family="Times New Roman,serif" font-size="14.00" text-anchor="middle" x="283.5" y="-197.3">(None, 16, 16, 8)</text>
<polyline fill="none" points="224,-189.5 343,-189.5 " stroke="black"/>
<text font-family="Times New Roman,serif" font-size="14.00" text-anchor="middle" x="283.5" y="-174.3">(None, 14, 14, 16)</text>
</g>
<!-- 2482716060304&#45;&gt;2482716057728 -->
<g class="edge" id="edge11"><title>2482716060304-&gt;2482716057728</title>
<path d="M192,-249.366C192,-241.152 192,-231.658 192,-222.725" fill="none" stroke="black"/>
<polygon fill="black" points="195.5,-222.607 192,-212.607 188.5,-222.607 195.5,-222.607" stroke="black"/>
</g>
<!-- 2482716059408 -->
<g class="node" id="node13"><title>2482716059408</title>
<polygon fill="none" points="0,-83.5 0,-129.5 384,-129.5 384,-83.5 0,-83.5" stroke="black"/>
<text font-family="Times New Roman,serif" font-size="14.00" text-anchor="middle" x="104.5" y="-102.8">up_sampling2d_2: UpSampling2D</text>
<polyline fill="none" points="209,-83.5 209,-129.5 " stroke="black"/>
<text font-family="Times New Roman,serif" font-size="14.00" text-anchor="middle" x="237" y="-114.3">input:</text>
<polyline fill="none" points="209,-106.5 265,-106.5 " stroke="black"/>
<text font-family="Times New Roman,serif" font-size="14.00" text-anchor="middle" x="237" y="-91.3">output:</text>
<polyline fill="none" points="265,-83.5 265,-129.5 " stroke="black"/>
<text font-family="Times New Roman,serif" font-size="14.00" text-anchor="middle" x="324.5" y="-114.3">(None, 14, 14, 16)</text>
<polyline fill="none" points="265,-106.5 384,-106.5 " stroke="black"/>
<text font-family="Times New Roman,serif" font-size="14.00" text-anchor="middle" x="324.5" y="-91.3">(None, 28, 28, 16)</text>
</g>
<!-- 2482716057728&#45;&gt;2482716059408 -->
<g class="edge" id="edge12"><title>2482716057728-&gt;2482716059408</title>
<path d="M192,-166.366C192,-158.152 192,-148.658 192,-139.725" fill="none" stroke="black"/>
<polygon fill="black" points="195.5,-139.607 192,-129.607 188.5,-139.607 195.5,-139.607" stroke="black"/>
</g>
<!-- 2482715842488 -->
<g class="node" id="node14"><title>2482715842488</title>
<polygon fill="none" points="41,-0.5 41,-46.5 343,-46.5 343,-0.5 41,-0.5" stroke="black"/>
<text font-family="Times New Roman,serif" font-size="14.00" text-anchor="middle" x="104.5" y="-19.8">conv2d_6: Conv2D</text>
<polyline fill="none" points="168,-0.5 168,-46.5 " stroke="black"/>
<text font-family="Times New Roman,serif" font-size="14.00" text-anchor="middle" x="196" y="-31.3">input:</text>
<polyline fill="none" points="168,-23.5 224,-23.5 " stroke="black"/>
<text font-family="Times New Roman,serif" font-size="14.00" text-anchor="middle" x="196" y="-8.3">output:</text>
<polyline fill="none" points="224,-0.5 224,-46.5 " stroke="black"/>
<text font-family="Times New Roman,serif" font-size="14.00" text-anchor="middle" x="283.5" y="-31.3">(None, 28, 28, 16)</text>
<polyline fill="none" points="224,-23.5 343,-23.5 " stroke="black"/>
<text font-family="Times New Roman,serif" font-size="14.00" text-anchor="middle" x="283.5" y="-8.3">(None, 28, 28, 1)</text>
</g>
<!-- 2482716059408&#45;&gt;2482715842488 -->
<g class="edge" id="edge13"><title>2482716059408-&gt;2482715842488</title>
<path d="M192,-83.3664C192,-75.1516 192,-65.6579 192,-56.7252" fill="none" stroke="black"/>
<polygon fill="black" points="195.5,-56.6068 192,-46.6068 188.5,-56.6069 195.5,-56.6068" stroke="black"/>
</g>
</g>
</svg>